<?xml version="1.0" encoding="utf-8"?>
<!-- Generator: Adobe Illustrator 18.0.0, SVG Export Plug-In . SVG Version: 6.00 Build 0)  -->
<!DOCTYPE svg PUBLIC "-//W3C//DTD SVG 1.1//EN" "http://www.w3.org/Graphics/SVG/1.1/DTD/svg11.dtd">
<svg version="1.1" id="Layer_1" xmlns="http://www.w3.org/2000/svg" xmlns:xlink="http://www.w3.org/1999/xlink" x="0px" y="0px"
	 viewBox="9.5 -52 144 144" enable-background="new 9.5 -52 144 144" xml:space="preserve">
<g>
	<path fill="#494D4B" d="M144.9,19.6c0.1,11.1-2.7,22-8.2,31.6c-0.7,1.3-1.5,2.5-2.3,3.7c-0.4,0.6-0.9,1.1-1.5,1.5
		c-0.6,0.4-1.3,0.7-2,0.8s-1.4,0.2-2.2,0c-0.7-0.1-1.4-0.4-2-0.8c-0.6-0.4-1.1-0.9-1.5-1.5c-0.4-0.6-0.7-1.3-0.8-2
		c-0.1-0.7-0.1-1.4,0-2.2c0.1-0.7,0.4-1.4,0.8-2c5.2-7.9,8.2-17.1,8.6-26.6c0.4-9.5-1.7-18.9-6.3-27.2c-4.5-8.3-11.2-15.3-19.3-20.2
		s-17.5-7.4-27-7.4c-18.2,0-34.4,9.6-43.8,23.9C32-0.1,29,9.9,29,20.1c0,10.2,3,20.2,8.7,28.7c0.8,1.2,1.1,2.7,0.8,4.1
		c-0.3,1.4-1.1,2.7-2.3,3.5c-1.2,0.8-2.7,1.1-4.1,0.8c-1.4-0.3-2.7-1.1-3.5-2.3c-6.2-9.5-9.8-20.5-10.4-31.8
		c-0.6-11.3,1.9-22.6,7.2-32.7c5.3-10,13.2-18.5,22.9-24.4c9.7-6,20.8-9.2,32.1-9.4c0.4,0,0.8,0,1.2,0c16.8,0,32.9,6.6,44.8,18.4
		C138.2-13.2,144.9,2.8,144.9,19.6z"/>
	<path fill="#04D361" d="M43.2,29.8l9.9,49.3c0.6,3,3.5,4.9,6.4,4.3c3-0.6,4.9-3.5,4.3-6.4l-9.9-49.3c-0.6-3-3.5-4.9-6.4-4.3
		C44.6,23.9,42.6,26.8,43.2,29.8z"/>
	<path fill="#494D4B" d="M53,78l-2.5,0.5c-3.7,0.8-7.6,0-10.8-2c-3.2-2-5.6-5.2-6.5-8.9c-0.1-0.3-0.1-0.6-0.2-0.9l-3.6-17.9
		c-0.8-3.9,0-7.9,2.2-11.2c2.2-3.3,5.6-5.6,9.5-6.4l2.5-0.5l4.4,21.9L53,78z"/>
	<path fill="#494D4B" d="M53,78l-2.5,0.5c-3.7,0.8-7.6,0-10.8-2c-3.2-2-5.6-5.2-6.5-8.9c5.3-4.6,10.3-9.6,14.8-15L53,78z"/>
	<path fill="#494D4B" d="M138,44.8l-1.3,6.4c-0.7,1.3-1.5,2.5-2.3,3.7c-0.4,0.6-0.9,1.1-1.5,1.5c-0.6,0.4-1.3,0.7-2,0.8
		c-0.7,0.1-1.4,0.2-2.2,0c-0.7-0.1-1.4-0.4-2-0.8c-0.6-0.4-1.1-0.9-1.5-1.5c-0.4-0.6-0.7-1.3-0.8-2c-0.1-0.7-0.1-1.4,0-2.2
		c0.1-0.7,0.4-1.4,0.8-2c3.7-5.6,6.3-11.9,7.6-18.5c2.1,1.7,3.6,4,4.5,6.5C138.4,39.4,138.6,42.2,138,44.8z"/>
	<path fill="#8257E5" d="M131.5-19.1l-7.8,7.8c-4.9-6.6-11.3-12-18.6-15.7c-7.3-3.7-15.5-5.6-23.7-5.6c-18.2,0-34.4,9.6-43.8,23.9
		l-8-8c5.7-8.2,13.3-14.8,22.1-19.5c8.8-4.7,18.6-7.2,28.6-7.4c0.4,0,0.8,0,1.2,0c9.6,0,19.2,2.2,27.8,6.4
		C118-32.9,125.6-26.7,131.5-19.1z"/>
	<path fill="#04D361" d="M109,27.6l-9.9,49.3c-0.6,3,1.3,5.8,4.3,6.4c3,0.6,5.8-1.3,6.4-4.3l9.9-49.3c0.6-3-1.3-5.8-4.3-6.4
		S109.6,24.6,109,27.6z"/>
	<path fill="#494D4B" d="M133.8,48.9l-3.6,17.9c-0.8,3.9-3.1,7.3-6.4,9.5c-3.3,2.2-7.3,3-11.2,2.2l-2.5-0.5l2.6-12.9l6.9-34.3
		l2.5,0.5c3.9,0.8,7.3,3.1,9.5,6.4c0.3,0.5,0.6,0.9,0.8,1.4C133.9,42.1,134.4,45.5,133.8,48.9z"/>
	<path fill="#494D4B" d="M133.8,48.9l-3.6,17.9c-0.8,3.9-3.1,7.3-6.4,9.5c-3.3,2.2-7.3,3-11.2,2.2l-2.5-0.5l2.6-12.9
		c7.5-7.9,14.1-16.6,19.7-26C133.9,42.1,134.4,45.5,133.8,48.9z"/>
</g>
</svg>
