<?xml version="1.0" encoding="utf-8"?>
<!-- Generator: Adobe Illustrator 18.0.0, SVG Export Plug-In . SVG Version: 6.00 Build 0)  -->
<!DOCTYPE svg PUBLIC "-//W3C//DTD SVG 1.1//EN" "http://www.w3.org/Graphics/SVG/1.1/DTD/svg11.dtd">
<svg version="1.1" id="Layer_1" xmlns="http://www.w3.org/2000/svg" xmlns:xlink="http://www.w3.org/1999/xlink" x="0px" y="0px"
	 viewBox="-174.5 -236 512 512" enable-background="new -174.5 -236 512 512" xml:space="preserve">
<g>
	<path fill="#494D4B" d="M315.9,18.5c0.3,40.9-10.2,81.2-30.4,116.9c-2.6,4.6-5.4,9.2-8.3,13.6c-1.4,2.2-3.3,4.2-5.5,5.7
		c-2.2,1.5-4.7,2.6-7.3,3.1c-2.6,0.6-5.3,0.6-7.9,0.1c-2.6-0.5-5.1-1.5-7.4-3c-2.2-1.5-4.1-3.4-5.6-5.6c-1.5-2.2-2.5-4.7-3-7.3
		c-0.5-2.6-0.5-5.3,0-7.9c0.5-2.6,1.6-5.1,3.1-7.3c19.3-29.3,30.3-63.2,31.8-98.2c1.5-35-6.5-69.8-23.1-100.6
		c-16.7-30.8-41.3-56.6-71.5-74.5c-30.1-17.9-64.5-27.4-99.6-27.3c-67.4,0.1-127.1,35.5-161.8,88.3c-20.8,31.5-31.8,68.4-31.8,106.2
		c0,37.7,11.2,74.6,32,106.1c3,4.5,4,9.9,2.9,15.2c-1.1,5.2-4.2,9.9-8.7,12.8c-4.5,3-9.9,4-15.2,2.9c-5.2-1.1-9.9-4.2-12.8-8.7
		c-23.1-35-36.3-75.6-38.4-117.5c-2.1-41.9,7.2-83.6,26.7-120.7c19.5-37.1,48.7-68.3,84.4-90.3c35.7-22,76.7-34,118.6-34.8
		c1.5,0,2.9,0,4.4,0c61.9-0.1,121.4,24.3,165.3,68C290.8-102.8,315.6-43.5,315.9,18.5z"/>
	<path fill="#04D361" d="M-59.9,56.1l36.6,182.1c2.2,10.9,12.8,18,23.8,15.8c10.9-2.2,18-12.8,15.8-23.8L-20.3,48.1
		c-2.2-10.9-12.8-18-23.8-15.8C-55,34.5-62.1,45.1-59.9,56.1z"/>
	<path fill="#494D4B" d="M-23.9,234.1l-9.3,1.9c-13.8,2.8-28.1,0.2-40.1-7.3c-11.9-7.4-20.6-19.2-24.2-32.8c-0.3-1-0.5-2.1-0.7-3.2
		l-13.3-66.1c-2.9-14.3,0-29.3,8.1-41.4c8.1-12.2,20.7-20.7,35.1-23.6l9.3-1.9l16.3,80.9L-23.9,234.1z"/>
	<path fill="#494D4B" d="M-23.9,234.1l-9.3,1.9c-13.8,2.8-28.1,0.2-40.1-7.3c-11.9-7.4-20.6-19.2-24.2-32.8
		c19.6-17,37.9-35.5,54.7-55.2L-23.9,234.1z"/>
	<path fill="#494D4B" d="M290.3,111.6l-4.8,23.8c-2.6,4.6-5.4,9.2-8.3,13.6c-1.4,2.2-3.3,4.2-5.5,5.7c-2.2,1.5-4.7,2.6-7.3,3.1
		c-2.6,0.6-5.3,0.6-7.9,0.1c-2.6-0.5-5.1-1.5-7.4-3c-2.2-1.5-4.1-3.4-5.6-5.6c-1.5-2.2-2.5-4.7-3-7.3c-0.5-2.6-0.5-5.3,0-7.9
		c0.5-2.6,1.6-5.1,3.1-7.3c13.7-20.7,23.3-43.9,28.2-68.3c7.6,6.4,13.3,14.7,16.6,24C291.5,91.8,292.2,101.8,290.3,111.6z"/>
	<path fill="#8257E5" d="M266.3-124.5l-29,29c-18.1-24.4-41.6-44.2-68.7-57.9c-27.1-13.6-57.1-20.7-87.5-20.6
		c-67.4,0.1-127.1,35.5-161.8,88.3l-29.4-29.4c21.2-30.1,49.2-54.8,81.7-72.1c32.5-17.3,68.7-26.6,105.5-27.2c1.5,0,2.9,0,4.4,0
		c35.6-0.1,70.8,8,102.8,23.6C216.4-175.3,244.4-152.6,266.3-124.5z"/>
	<path fill="#04D361" d="M183,47.9L146.3,230c-2.2,10.9,4.9,21.6,15.8,23.8c10.9,2.2,21.6-4.9,23.8-15.8l36.6-182.1
		c2.2-10.9-4.9-21.6-15.8-23.8C195.8,29.9,185.2,37,183,47.9z"/>
	<path fill="#494D4B" d="M274.5,126.7l-13.3,66.1c-2.9,14.3-11.4,27-23.5,35.1c-12.2,8.1-27.1,11-41.4,8.1l-9.3-1.9l9.6-47.7
		L222,59.8l9.3,1.9c14.3,2.9,27,11.4,35.1,23.5c1.1,1.7,2.1,3.4,3.1,5.2C275.2,101.6,277,114.4,274.5,126.7z"/>
	<path fill="#494D4B" d="M274.5,126.7l-13.3,66.1c-2.9,14.3-11.4,27-23.5,35.1c-12.2,8.1-27.1,11-41.4,8.1l-9.3-1.9l9.6-47.7
		c27.7-29.3,52.1-61.4,72.9-95.9C275.2,101.6,277,114.4,274.5,126.7z"/>
</g>
</svg>
